<svg width="23" height="21" fill="none" xmlns="http://www.w3.org/2000/svg"><path d="M11.643 20.46l-.003.002a.282.282 0 01-.28 0l-.003-.002c-.21-.118-2.95-1.71-5.63-4.21C3.024 13.727.5 10.39.5 6.782c.002-1.676.628-3.276 1.731-4.452C3.334 1.156 4.821.501 6.366.5c1.961 0 3.664.895 4.725 2.402l.409.58.409-.58C12.97 1.395 14.673.5 16.634.5c1.544.002 3.032.656 4.135 1.831 1.103 1.176 1.73 2.777 1.731 4.452 0 3.608-2.525 6.945-5.226 9.466-2.681 2.502-5.421 4.093-5.63 4.211z" fill="#fff" stroke="#000"/></svg>