<svg width="137" height="23" fill="none" xmlns="http://www.w3.org/2000/svg"><path d="M12.157 19.296c0 1.23-.515 2.138-1.546 2.723-1.03.585-2.6.877-4.708.877-1.03 0-1.9-.07-2.607-.208-.692-.123-1.262-.308-1.708-.554-.43-.246-.746-.546-.946-.9a2.555 2.555 0 01-.277-1.2c0-.646.177-1.153.53-1.523.37-.354.885-.615 1.547-.784v-.231c-.4-.154-.723-.37-.97-.646-.23-.277-.345-.639-.345-1.085 0-.584.2-1.023.6-1.315.4-.308.915-.538 1.546-.692v-.116c-.723-.338-1.285-.815-1.685-1.43-.4-.616-.6-1.354-.6-2.216 0-.63.116-1.2.346-1.707a3.62 3.62 0 01.97-1.316 4.6 4.6 0 011.523-.853c.6-.2 1.269-.3 2.007-.3.83 0 1.577.13 2.238.392V5.82c0-.462.131-.847.393-1.154.261-.308.661-.462 1.2-.462h2.169V6.19h-2.77v.554a3.5 3.5 0 011.2 1.361c.278.538.416 1.17.416 1.892a4.24 4.24 0 01-.346 1.731c-.23.508-.562.946-.992 1.315a4.529 4.529 0 01-1.523.831c-.585.185-1.246.277-1.985.277a7.524 7.524 0 01-1.477-.139 2.903 2.903 0 00-.83.393.869.869 0 00-.416.761c0 .37.177.6.53.693.355.092.793.138 1.316.138h2.677c1.6 0 2.754.308 3.461.923.708.6 1.062 1.392 1.062 2.377zm-2.354.162c0-.4-.161-.724-.484-.97-.323-.23-.908-.346-1.754-.346h-4.13c-.585.277-.878.723-.878 1.338 0 .447.185.831.554 1.154.385.323 1.016.485 1.892.485h1.87c.953 0 1.676-.146 2.169-.439.507-.276.761-.684.761-1.223zm-3.969-7.039c.816 0 1.415-.192 1.8-.577.385-.384.577-.9.577-1.546v-.623c0-.646-.192-1.161-.577-1.546-.385-.384-.984-.577-1.8-.577-.815 0-1.415.193-1.8.577-.384.385-.577.9-.577 1.546v.623c0 .646.193 1.162.577 1.546.385.385.985.577 1.8.577zm14.668-8.492c-.647 0-1.1-.13-1.362-.392a1.36 1.36 0 01-.37-.97v-.484c0-.384.124-.707.37-.969.262-.262.708-.392 1.338-.392.647 0 1.093.13 1.339.392.261.262.392.585.392.97v.484c0 .384-.13.707-.392.969-.246.262-.685.392-1.316.392zM15.17 15.973h4.061V8.127H15.17v-2.03h6.577v9.876h3.807v2.03H15.171v-2.03zM28.5 6.096h2.515v2.031h.139c.354-.723.823-1.284 1.407-1.684.585-.416 1.316-.623 2.193-.623 1.4 0 2.515.523 3.346 1.569.83 1.046 1.246 2.6 1.246 4.661 0 2.061-.416 3.615-1.246 4.661-.831 1.047-1.947 1.57-3.346 1.57-.877 0-1.608-.2-2.193-.6-.584-.416-1.053-.985-1.407-1.708h-.139v6.646H28.5V6.096zm5.215 10.13c.954 0 1.685-.291 2.192-.876.523-.585.785-1.362.785-2.33v-1.94c0-.968-.262-1.745-.785-2.33-.507-.584-1.238-.877-2.192-.877-.37 0-.715.046-1.038.139-.323.092-.608.23-.854.415a2.174 2.174 0 00-.6.692c-.139.262-.208.577-.208.947v3.969c0 .369.07.692.208.969.154.261.354.484.6.669a2.6 2.6 0 00.854.415c.323.093.669.139 1.038.139zm13.975 2.055c-.907 0-1.723-.147-2.446-.439a4.934 4.934 0 01-1.823-1.246 5.508 5.508 0 01-1.13-1.938c-.262-.77-.393-1.631-.393-2.585s.13-1.815.392-2.584c.277-.77.654-1.423 1.131-1.962a4.89 4.89 0 011.777-1.269c.692-.292 1.461-.438 2.307-.438.831 0 1.585.146 2.262.438a4.734 4.734 0 011.73 1.2 5.243 5.243 0 011.085 1.87c.262.722.392 1.522.392 2.399v.946h-8.538v.392c0 .939.293 1.708.877 2.308.585.585 1.392.877 2.423.877.77 0 1.423-.162 1.962-.485.554-.338 1-.784 1.338-1.338l1.57 1.384c-.4.693-1.016 1.277-1.847 1.754-.815.477-1.838.716-3.069.716zm-.184-10.546c-.447 0-.862.077-1.247.23a2.81 2.81 0 00-.969.67 3.116 3.116 0 00-.623.992c-.154.385-.23.808-.23 1.27v.16h5.976v-.23c0-.938-.27-1.684-.808-2.238-.523-.57-1.223-.854-2.1-.854zm8.598 8.238h3.161V8.127h-3.161v-2.03h5.677v3.16h.138c.108-.415.262-.815.462-1.2.2-.384.453-.714.761-.991a3.336 3.336 0 011.13-.693c.447-.184.97-.277 1.57-.277h1.43v2.4H64.92c-.923 0-1.677.277-2.262.831-.584.539-.876 1.27-.876 2.192v4.454h4.315v2.03h-9.992v-2.03z" fill="#fff"/><path d="M69.663 18.004v-3.231h3.416v3.23h-3.415zM85.341 5.82c1.353 0 2.33.3 2.93.9.6.584.9 1.561.9 2.93v4.523c0 1.37-.3 2.354-.9 2.954-.6.584-1.577.877-2.93.877h-1.685c-1.17 0-2.07-.093-2.7-.277-.615-.185-1.315-.6-2.1-1.246l-.207-.162-.323 1.685h-2.308V1.85h2.815v5.516l.023-.023c.785-.647 1.485-1.062 2.1-1.247.63-.184 1.53-.276 2.7-.276h1.685zm1.038 7.96v-3.738c0-.753-.138-1.269-.415-1.546-.277-.277-.793-.415-1.546-.415h-1.662c-1.277 0-2.277.27-3 .808l-.923.692v4.661l.923.692c.723.539 1.723.808 3 .808h1.662c.753 0 1.269-.138 1.546-.415.277-.277.415-.792.415-1.546zm9.104 4.224c-1.354 0-2.33-.293-2.93-.877-.6-.6-.9-1.585-.9-2.954V9.65c0-1.369.3-2.346.9-2.93.6-.6 1.576-.9 2.93-.9h5.492c1.354 0 2.331.3 2.931.9.6.584.9 1.561.9 2.93v4.523c0 1.37-.3 2.354-.9 2.954-.6.584-1.577.877-2.931.877h-5.492zm.923-2.262h3.646c.754 0 1.262-.138 1.523-.415.277-.277.416-.792.416-1.546v-3.739c0-.753-.139-1.269-.416-1.546-.261-.277-.769-.415-1.523-.415h-3.646c-.754 0-1.269.138-1.546.415-.261.277-.392.793-.392 1.546v3.739c0 .754.13 1.269.392 1.546.277.277.792.415 1.546.415zm14.717 2.262c-1.354 0-2.331-.293-2.931-.877-.6-.6-.9-1.585-.9-2.954V9.65c0-1.369.3-2.346.9-2.93.6-.6 1.577-.9 2.931-.9h5.492c1.353 0 2.33.3 2.93.9.6.584.9 1.561.9 2.93v4.523c0 1.37-.3 2.354-.9 2.954-.6.584-1.577.877-2.93.877h-5.492zm.923-2.262h3.646c.753 0 1.261-.138 1.523-.415.277-.277.415-.792.415-1.546v-3.739c0-.753-.138-1.269-.415-1.546-.262-.277-.77-.415-1.523-.415h-3.646c-.754 0-1.27.138-1.547.415-.261.277-.392.793-.392 1.546v3.739c0 .754.131 1.269.392 1.546.277.277.793.415 1.547.415zm24.454 2.262h-4.131l-6.415-5.77v5.77h-2.815V1.85h2.815v9.785l6.323-5.815h4.085l-7.085 6.045 7.223 6.139z" fill="#E7FF00"/></svg>