<svg width="23" height="22" viewBox="0 0 23 22" fill="none" xmlns="http://www.w3.org/2000/svg">
<path d="M13.0625 18.75H19.3125V20.3125H13.0625V18.75ZM13.0625 15.625H22.4375V17.1875H13.0625V15.625ZM13.0625 12.5H22.4375V14.0625H13.0625V12.5Z" fill="black"/>
<path d="M15.0539 7.20078L11.5 0L7.94609 7.20078L0 8.35547L5.75 13.9609L4.39219 21.875L9.9375 18.9602V17.1945L6.46797 19.0187L7.28984 14.225L7.42891 13.4148L6.84063 12.8422L3.35781 9.44609L8.17109 8.74687L8.98359 8.62891L9.34766 7.89219L11.5 3.53047L13.6523 7.89219L14.0164 8.62891L14.8289 8.74687L20.6523 9.59453L20.875 8.04688L15.0539 7.20078Z" fill="black"/>
</svg>
