<svg width="23" height="21" viewBox="0 0 23 21" fill="none" xmlns="http://www.w3.org/2000/svg">
<path d="M11.6435 20.46L11.6405 20.4618C11.5954 20.4876 11.5472 20.5 11.5 20.5C11.4528 20.5 11.4046 20.4876 11.3595 20.4617L11.3565 20.4601C11.1471 20.342 8.40699 18.7507 5.72635 16.2494C3.02455 13.7284 0.500128 10.3911 0.5 6.78312C0.501836 5.10748 1.12768 3.50689 2.23126 2.33106C3.33382 1.15632 4.82167 0.501939 6.36637 0.5C8.32741 0.500092 10.0298 1.39529 11.0913 2.9016L11.5 3.48159L11.9087 2.9016C12.9702 1.39529 14.6726 0.500092 16.6336 0.5C18.1783 0.501939 19.6662 1.15632 20.7687 2.33106C21.8724 3.50695 22.4982 5.10764 22.5 6.78338C22.4998 10.3913 19.9754 13.7284 17.2737 16.2494C14.593 18.7507 11.8529 20.342 11.6435 20.46Z" fill="white" stroke="black"/>
</svg>
