<svg width="23" height="21" viewBox="0 0 23 21" fill="none" xmlns="http://www.w3.org/2000/svg">
<path id="Vector" d="M23 6.78285C23 14.4409 12.343 20.6396 11.8892 20.8956C11.7695 20.9641 11.6358 21 11.5 21C11.3642 21 11.2305 20.9641 11.1108 20.8956C10.657 20.6396 0 14.4409 0 6.78285C0.00190236 4.98455 0.673223 3.26048 1.86668 1.98889C3.06014 0.717297 4.67827 0.00202691 6.36607 0C8.48638 0 10.3428 0.971479 11.5 2.61358C12.6572 0.971479 14.5136 0 16.6339 0C18.3217 0.00202691 19.9399 0.717297 21.1333 1.98889C22.3268 3.26048 22.9981 4.98455 23 6.78285Z" fill="#C40404"/>
</svg>
