<svg width="137" height="23" viewBox="0 0 137 23" fill="none" xmlns="http://www.w3.org/2000/svg">
<path d="M12.157 19.2959C12.157 20.5266 11.6416 21.4343 10.6109 22.0189C9.58019 22.6035 8.01099 22.8958 5.90339 22.8958C4.87266 22.8958 4.00346 22.8266 3.29579 22.6881C2.60351 22.565 2.0343 22.3804 1.58817 22.1343C1.15742 21.8881 0.842043 21.5881 0.642053 21.2343C0.457443 20.8805 0.365143 20.4805 0.365143 20.0344C0.365143 19.3882 0.542053 18.8806 0.895893 18.5113C1.2651 18.1575 1.78047 17.896 2.44198 17.7267V17.496C2.042 17.3421 1.71893 17.1268 1.47279 16.8499C1.24203 16.5729 1.12665 16.2114 1.12665 15.7653C1.12665 15.1807 1.32664 14.7422 1.72662 14.45C2.12661 14.1423 2.64197 13.9115 3.27272 13.7577V13.6423C2.54967 13.3038 1.98815 12.8269 1.58817 12.2116C1.18818 11.5962 0.988193 10.8578 0.988193 9.9963C0.988193 9.3655 1.10357 8.79633 1.33433 8.28865C1.56509 7.7656 1.88816 7.32715 2.30352 6.97332C2.73428 6.6041 3.24195 6.3195 3.82654 6.11951C4.42652 5.91951 5.09572 5.81952 5.83416 5.81952C6.66489 5.81952 7.41099 5.95028 8.07249 6.21181V5.81952C8.07249 5.358 8.20329 4.9734 8.46479 4.66572C8.72639 4.35804 9.12629 4.20419 9.66479 4.20419H11.8339V6.18873H9.06479V6.74256C9.58789 7.09639 9.98789 7.55022 10.2648 8.10404C10.5417 8.64249 10.6801 9.2732 10.6801 9.9963C10.6801 10.627 10.5648 11.2039 10.334 11.727C10.1032 12.2347 9.77249 12.6731 9.34169 13.0423C8.92639 13.3961 8.41869 13.6731 7.81869 13.8731C7.23409 14.0577 6.57259 14.15 5.83416 14.15C5.3111 14.15 4.81881 14.1038 4.35729 14.0115C4.08038 14.0884 3.80347 14.2192 3.52655 14.4038C3.24964 14.5884 3.11119 14.8422 3.11119 15.1653C3.11119 15.5345 3.2881 15.7653 3.64193 15.8576C3.99577 15.9499 4.43421 15.996 4.95727 15.996H7.63409C9.23399 15.996 10.3878 16.3037 11.0955 16.9191C11.8032 17.5191 12.157 18.3113 12.157 19.2959ZM9.80319 19.4575C9.80319 19.0575 9.64169 18.7344 9.31859 18.4883C8.99559 18.2575 8.41099 18.1421 7.56489 18.1421H3.43425C2.84966 18.419 2.55736 18.8652 2.55736 19.4805C2.55736 19.9267 2.74197 20.3113 3.11119 20.6343C3.49579 20.9574 4.12653 21.1189 5.00342 21.1189H6.87258C7.82639 21.1189 8.54939 20.9728 9.04169 20.6805C9.54939 20.4036 9.80319 19.9959 9.80319 19.4575ZM5.83416 12.4193C6.64951 12.4193 7.24949 12.227 7.63409 11.8424C8.01869 11.4578 8.21099 10.9424 8.21099 10.2963V9.6732C8.21099 9.0271 8.01869 8.51172 7.63409 8.12712C7.24949 7.74252 6.64951 7.55022 5.83416 7.55022C5.0188 7.55022 4.41883 7.74252 4.03423 8.12712C3.64963 8.51172 3.45733 9.0271 3.45733 9.6732V10.2963C3.45733 10.9424 3.64963 11.4578 4.03423 11.8424C4.41883 12.227 5.0188 12.4193 5.83416 12.4193ZM20.5015 3.92728C19.8554 3.92728 19.4016 3.79652 19.14 3.53499C18.8939 3.27346 18.7708 2.9504 18.7708 2.5658V2.0812C18.7708 1.6966 18.8939 1.37354 19.14 1.11201C19.4016 0.850481 19.8477 0.719711 20.4784 0.719711C21.1246 0.719711 21.5707 0.850481 21.8168 1.11201C22.0784 1.37354 22.2091 1.6966 22.2091 2.0812V2.5658C22.2091 2.9504 22.0784 3.27346 21.8168 3.53499C21.5707 3.79652 21.1323 3.92728 20.5015 3.92728ZM15.1709 15.973H19.2323V8.12712H15.1709V6.09643H21.7476V15.973H25.5552V18.0037H15.1709V15.973ZM28.4999 6.09643H31.0152V8.12712H31.1536C31.5075 7.40407 31.9767 6.84255 32.5613 6.44257C33.1459 6.0272 33.8766 5.81952 34.7535 5.81952C36.1534 5.81952 37.2688 6.34257 38.0995 7.38869C38.9302 8.4348 39.3456 9.9886 39.3456 12.05C39.3456 14.1115 38.9302 15.6653 38.0995 16.7114C37.2688 17.7575 36.1534 18.2806 34.7535 18.2806C33.8766 18.2806 33.1459 18.0806 32.5613 17.6806C31.9767 17.2652 31.5075 16.696 31.1536 15.973H31.0152V22.6189H28.4999V6.09643ZM33.7151 16.2268C34.6689 16.2268 35.3996 15.9345 35.9073 15.3499C36.4303 14.7653 36.6919 13.9884 36.6919 13.0192V11.0809C36.6919 10.1117 36.4303 9.3348 35.9073 8.75017C35.3996 8.16558 34.6689 7.87328 33.7151 7.87328C33.3458 7.87328 32.9997 7.91944 32.6766 8.01174C32.3536 8.10404 32.069 8.2425 31.8228 8.42711C31.5767 8.61172 31.3767 8.84248 31.2228 9.1194C31.0844 9.3809 31.0152 9.6963 31.0152 10.0655V14.0346C31.0152 14.4038 31.0844 14.7269 31.2228 15.0038C31.3767 15.2653 31.5767 15.4884 31.8228 15.673C32.069 15.8576 32.3536 15.996 32.6766 16.0884C32.9997 16.1807 33.3458 16.2268 33.7151 16.2268ZM47.6901 18.2806C46.7825 18.2806 45.9671 18.1344 45.2441 17.8421C44.521 17.5498 43.9133 17.1345 43.4211 16.596C42.9288 16.0576 42.5519 15.4115 42.2903 14.6576C42.0288 13.8884 41.898 13.0269 41.898 12.0731C41.898 11.1193 42.0288 10.2578 42.2903 9.4886C42.5672 8.71941 42.9441 8.06558 43.4211 7.52714C43.9133 6.97332 44.5056 6.55026 45.1979 6.25796C45.8902 5.96567 46.6594 5.81952 47.5055 5.81952C48.3362 5.81952 49.0901 5.96567 49.767 6.25796C50.4439 6.53487 51.0208 6.93486 51.4977 7.45792C51.9746 7.98097 52.3361 8.60403 52.5822 9.3271C52.8438 10.0501 52.9745 10.8501 52.9745 11.727V12.6731H44.4364V13.0654C44.4364 14.0038 44.7287 14.773 45.3133 15.373C45.8979 15.9576 46.7055 16.2499 47.7363 16.2499C48.5055 16.2499 49.1593 16.0884 49.6977 15.7653C50.2516 15.4268 50.6977 14.9807 51.0361 14.4269L52.6053 15.8114C52.2053 16.5037 51.59 17.0883 50.7592 17.5652C49.9439 18.0421 48.9208 18.2806 47.6901 18.2806ZM47.5055 7.73483C47.0594 7.73483 46.644 7.81175 46.2594 7.96559C45.8902 8.11943 45.5671 8.3425 45.2902 8.63479C45.0287 8.91171 44.821 9.2425 44.6672 9.6271C44.5133 10.0117 44.4364 10.4347 44.4364 10.8962V11.0578H50.4131V10.827C50.4131 9.8886 50.1439 9.1425 49.6054 8.58864C49.0824 8.01943 48.3824 7.73483 47.5055 7.73483ZM56.1039 15.973H59.2653V8.12712H56.1039V6.09643H61.7806V9.2578H61.919C62.0267 8.84248 62.1805 8.44249 62.3805 8.05789C62.5805 7.67329 62.8344 7.34254 63.142 7.06562C63.4497 6.77333 63.8266 6.54257 64.2728 6.37334C64.7189 6.18873 65.242 6.09643 65.8419 6.09643H67.2727V8.49634H64.9189C63.9959 8.49634 63.242 8.77325 62.6574 9.3271C62.0729 9.8655 61.7806 10.5963 61.7806 11.5193V15.973H66.0958V18.0037H56.1039V15.973Z" fill="white"/>
<path d="M69.6635 18.0037V14.773H73.0788V18.0037H69.6635ZM85.3406 5.81952C86.6944 5.81952 87.6713 6.11951 88.2713 6.71948C88.8713 7.30408 89.1713 8.28096 89.1713 9.6501V14.173C89.1713 15.5422 88.8713 16.5268 88.2713 17.1268C87.6713 17.7114 86.6944 18.0037 85.3406 18.0037H83.6561C82.4869 18.0037 81.5869 17.9114 80.9562 17.7267C80.3408 17.5421 79.6409 17.1268 78.8563 16.4806L78.6486 16.3191L78.3255 18.0037H76.0179V1.85044H78.8332V7.36561L78.8563 7.34254C79.6409 6.69641 80.3408 6.28104 80.9562 6.09643C81.5869 5.91182 82.4869 5.81952 83.6561 5.81952H85.3406ZM86.3791 13.7807V10.0424C86.3791 9.2886 86.2406 8.77325 85.9637 8.49634C85.6868 8.21942 85.1714 8.08097 84.4176 8.08097H82.7561C81.4793 8.08097 80.4793 8.35019 79.7562 8.88863L78.8332 9.5809V14.2423L79.7562 14.9345C80.4793 15.473 81.4793 15.7422 82.7561 15.7422H84.4176C85.1714 15.7422 85.6868 15.6038 85.9637 15.3268C86.2406 15.0499 86.3791 14.5346 86.3791 13.7807ZM95.4831 18.0037C94.1293 18.0037 93.1524 17.7114 92.5524 17.1268C91.9525 16.5268 91.6525 15.5422 91.6525 14.173V9.6501C91.6525 8.28096 91.9525 7.30408 92.5524 6.71948C93.1524 6.11951 94.1293 5.81952 95.4831 5.81952H100.975C102.329 5.81952 103.306 6.11951 103.906 6.71948C104.506 7.30408 104.806 8.28096 104.806 9.6501V14.173C104.806 15.5422 104.506 16.5268 103.906 17.1268C103.306 17.7114 102.329 18.0037 100.975 18.0037H95.4831ZM96.4061 15.7422H100.052C100.806 15.7422 101.314 15.6038 101.575 15.3268C101.852 15.0499 101.991 14.5346 101.991 13.7807V10.0424C101.991 9.2886 101.852 8.77325 101.575 8.49634C101.314 8.21942 100.806 8.08097 100.052 8.08097H96.4061C95.6523 8.08097 95.137 8.21942 94.86 8.49634C94.5985 8.77325 94.4678 9.2886 94.4678 10.0424V13.7807C94.4678 14.5346 94.5985 15.0499 94.86 15.3268C95.137 15.6038 95.6523 15.7422 96.4061 15.7422ZM111.123 18.0037C109.769 18.0037 108.792 17.7114 108.192 17.1268C107.592 16.5268 107.292 15.5422 107.292 14.173V9.6501C107.292 8.28096 107.592 7.30408 108.192 6.71948C108.792 6.11951 109.769 5.81952 111.123 5.81952H116.615C117.968 5.81952 118.945 6.11951 119.545 6.71948C120.145 7.30408 120.445 8.28096 120.445 9.6501V14.173C120.445 15.5422 120.145 16.5268 119.545 17.1268C118.945 17.7114 117.968 18.0037 116.615 18.0037H111.123ZM112.046 15.7422H115.692C116.445 15.7422 116.953 15.6038 117.215 15.3268C117.492 15.0499 117.63 14.5346 117.63 13.7807V10.0424C117.63 9.2886 117.492 8.77325 117.215 8.49634C116.953 8.21942 116.445 8.08097 115.692 8.08097H112.046C111.292 8.08097 110.776 8.21942 110.499 8.49634C110.238 8.77325 110.107 9.2886 110.107 10.0424V13.7807C110.107 14.5346 110.238 15.0499 110.499 15.3268C110.776 15.6038 111.292 15.7422 112.046 15.7422ZM136.5 18.0037H132.369L125.954 12.2347V18.0037H123.139V1.85044H125.954V11.6347L132.277 5.81952H136.362L129.277 11.8654L136.5 18.0037Z" fill="#E7FF00"/>
</svg>
